<?xml version="1.0" standalone="no"?>
<!DOCTYPE svg PUBLIC "-//W3C//DTD SVG 20010904//EN"
 "http://www.w3.org/TR/2001/REC-SVG-20010904/DTD/svg10.dtd">
<svg version="1.0" xmlns="http://www.w3.org/2000/svg"
 width="225.000000pt" height="225.000000pt" viewBox="0 0 225.000000 225.000000"
 preserveAspectRatio="xMidYMid meet">

<g transform="translate(0.000000,225.000000) scale(0.100000,-0.100000)"
fill="#000000" stroke="none">
<path d="M1085 2011 c-22 -10 -46 -25 -54 -35 -22 -26 -16 -86 13 -144 19 -38
26 -65 24 -95 l-3 -42 -145 -6 c-92 -4 -167 -12 -204 -23 -211 -62 -332 -200
-371 -422 -21 -120 -19 -117 -67 -139 -41 -19 -43 -23 -51 -75 -5 -30 -7 -100
-5 -155 4 -117 22 -160 80 -187 l35 -17 5 -85 c9 -145 58 -212 172 -236 36 -7
244 -10 647 -8 592 3 594 3 636 25 23 13 51 36 62 52 25 35 51 130 51 188 0
29 6 48 18 58 9 9 34 29 55 46 l37 31 0 158 0 158 -37 31 c-21 17 -46 37 -55
46 -12 10 -18 30 -18 58 -1 102 -51 240 -117 316 -97 114 -294 180 -535 181
-59 0 -70 5 -86 37 -14 25 -8 46 27 92 21 28 26 46 26 92 0 49 -4 62 -25 83
-35 33 -68 38 -115 17z m375 -441 c130 -25 242 -110 301 -228 l34 -67 3 -365
c3 -323 2 -369 -13 -396 -35 -66 -11 -64 -660 -64 -644 0 -628 -1 -660 61 -14
26 -16 80 -13 397 l3 367 27 58 c53 114 178 213 298 236 63 12 616 13 680 1z"/>
<path d="M754 1349 c-65 -19 -127 -71 -159 -133 -27 -55 -30 -67 -30 -167 0
-94 3 -111 21 -136 40 -53 34 -53 539 -53 505 0 499 0 539 53 18 25 21 42 21
136 0 100 -3 112 -30 167 -33 64 -95 115 -163 134 -46 12 -694 12 -738 -1z
m335 -153 c7 -8 30 -51 51 -95 22 -45 44 -81 51 -81 6 0 25 15 43 34 17 19 43
39 57 45 29 11 259 27 259 18 0 -3 -5 -18 -12 -32 -10 -23 -16 -25 -81 -25
-99 0 -141 -16 -208 -78 -42 -38 -64 -52 -77 -48 -11 4 -36 42 -62 96 -23 50
-47 90 -52 90 -6 0 -31 -18 -55 -41 -35 -32 -49 -39 -71 -35 -15 3 -58 8 -97
11 -115 10 -125 13 -125 41 l0 25 119 -7 120 -7 53 51 c57 55 69 60 87 38z"/>
<path d="M916 647 c-20 -29 -10 -66 21 -78 27 -10 335 -12 371 -2 33 8 47 49
27 79 -15 24 -16 24 -210 24 -191 0 -195 0 -209 -23z"/>
</g>
</svg>
